<?xml version="1.0" encoding="utf-8"?>
<!-- Generator: Adobe Illustrator 24.0.0, SVG Export Plug-In . SVG Version: 6.00 Build 0)  -->
<svg version="1.1" id="图层_1" xmlns="http://www.w3.org/2000/svg" xmlns:xlink="http://www.w3.org/1999/xlink" x="0px" y="0px"
	 viewBox="0 0 32 32" style="enable-background:new 0 0 32 32;" xml:space="preserve">
<style type="text/css">
	.st0{fill:#FFFFFF;}
</style>
<path class="st0" d="M17.3,17.3v7.4l2.4-2.4l1.9,1.9L16,29.9l-5.7-5.7l1.9-1.9l2.4,2.4v-7.4H17.3z M16,2.7c4.7,0,8.7,3.6,9.3,8.3
	c3.9,1.1,6.2,5.1,5.1,9c-0.8,3-3.4,5.1-6.4,5.4v-2.7c2.6-0.4,4.3-2.7,4-5.3s-2.7-4.3-5.3-4c-0.1,0-0.1,0-0.2,0
	c0.8-3.6-1.5-7.1-5.1-7.9S10.3,7,9.5,10.6c-0.2,0.9-0.2,1.9,0,2.8c-2.5-0.5-5,1.2-5.4,3.7s1.2,5,3.7,5.4l0.2,0v2.7
	c-4-0.4-7-3.9-6.6-8c0.3-3.1,2.4-5.6,5.4-6.4C7.3,6.2,11.3,2.7,16,2.7z"/>
</svg>
