<?xml version="1.0" encoding="utf-8"?>
<!-- Generator: Adobe Illustrator 24.0.0, SVG Export Plug-In . SVG Version: 6.00 Build 0)  -->
<svg version="1.1" id="图层_1" xmlns="http://www.w3.org/2000/svg" xmlns:xlink="http://www.w3.org/1999/xlink" x="0px" y="0px"
	 viewBox="0 0 128 128" style="enable-background:new 0 0 128 128;" xml:space="preserve">
<style type="text/css">
	.st0{fill-rule:evenodd;clip-rule:evenodd;fill:#979797;}
</style>
<g>
	<path class="st0" d="M67.7,1.1L111.1,46L78.8,77.1L50,47.2l-1.8-1.8L32.8,60.2L17.5,44.4L62.5,1C62.5,1,64.8-1.3,67.7,1.1z"/>
	<polygon class="st0" points="47.4,113.6 95,67.6 98.1,70.8 50.5,116.8 	"/>
	<polygon class="st0" points="53.6,119.9 101.2,74 104.3,77.1 56.7,123.1 	"/>
	<path class="st0" d="M59.7,126.3l47.7-45.9l3,3.1L65.3,127C62.7,129.6,59.7,126.3,59.7,126.3z"/>
	<polygon class="st0" points="16.9,81.9 19.9,85.1 52.2,54 49.1,50.8 	"/>
	<polygon class="st0" points="23,88.3 26,91.4 58.2,60.3 55.2,57.2 	"/>
	<polygon class="st0" points="29.1,94.6 32.2,97.8 64.4,66.7 61.3,63.5 	"/>
	<polygon class="st0" points="35.3,101 38.3,104.1 70.5,73 67.5,69.8 	"/>
	<polygon class="st0" points="41.3,107.3 44.4,110.5 76.6,79.4 73.6,76.2 	"/>
</g>
</svg>
