<?xml version="1.0" encoding="utf-8"?>
<!-- Generator: Adobe Illustrator 24.0.0, SVG Export Plug-In . SVG Version: 6.00 Build 0)  -->
<svg version="1.1" id="图层_1" xmlns="http://www.w3.org/2000/svg" xmlns:xlink="http://www.w3.org/1999/xlink" x="0px" y="0px"
	 viewBox="0 0 128 128" style="enable-background:new 0 0 128 128;" xml:space="preserve">
<style type="text/css">
	.st0{opacity:0.8;fill-rule:evenodd;clip-rule:evenodd;fill:#979797;enable-background:new    ;}
	.st1{fill-rule:evenodd;clip-rule:evenodd;fill:#979797;}
</style>
<g>
	<path class="st0" d="M32.8,104.7v-4.1l12.5-8.9H12.1c5.3,11.3,14.1,20.5,25,26.3c8.7-3.9,23.5-13.3,23.5-13.3H32.8z"/>
	<path class="st1" d="M52.9,91.1l-12.5,9.5h25.3C92,77.7,79.7,45.8,59.2,49.2C41.6,52,47.7,68.9,47.7,68.9s-1.4-12.8,11.1-14.2
		c11-1.3,19.5,15.5,6.6,22.9c-12.7,7.4-25.5-0.5-28-12.6C35,52.9,44.7,30.8,72.9,35.5c40.2,6.7,43.3,53.9,43.4,55.3
		c3.2-7.1,5-15,5-23.4C121.4,35.7,95.7,10,64,10S6.6,35.7,6.6,67.4c0,6.8,1.2,13.3,3.4,19.4l42.9,0.5V91.1z"/>
</g>
</svg>
