<?xml version="1.0" encoding="utf-8"?>
<!-- Generator: Adobe Illustrator 24.0.0, SVG Export Plug-In . SVG Version: 6.00 Build 0)  -->
<svg version="1.1" id="图层_1" xmlns="http://www.w3.org/2000/svg" xmlns:xlink="http://www.w3.org/1999/xlink" x="0px" y="0px"
	 viewBox="0 0 150 22" style="enable-background:new 0 0 150 22;" xml:space="preserve">
<style type="text/css">
	.st0{opacity:0.12;fill:#0054FF;}
	.st1{fill:#FFFFFF;}
</style>
<path class="st0" d="M140.7,19c-0.5,0.5-1.1,0.7-1.8,0.7s-1.3-0.2-1.8-0.7s-0.7-1.1-0.7-1.8c0-0.7,0.2-1.3,0.7-1.8s1.1-0.7,1.8-0.7
	s1.3,0.2,1.8,0.7s0.7,1.1,0.7,1.8C141.4,17.9,141.2,18.5,140.7,19z"/>
<g>
	<path class="st1" d="M23.2,3.5L23.2,3.5L28.1,0c-0.8,0.6-1.6,1.3-2.3,2.1c-0.4,0.4-0.8,0.8-1.1,1.1c-0.3,0.3-0.6,0.7-0.8,1.1
		c-0.3,0.4-0.5,0.8-0.8,1.2s-0.5,0.9-0.6,1.3l-3,12h-4.2l1.6-6.7H12c-0.1,0.1-0.2,0.1-0.3,0.2c-0.1,0.1-0.2,0.2-0.3,0.3
		s-0.2,0.2-0.3,0.3S11,13.1,11,13.2l-1.4,5.6H6.3c-0.8,0-1.5,0.1-2.2,0.3c-0.7,0.2-1.4,0.4-1.9,0.6c-0.6,0.2-1,0.4-1.4,0.6
		s-0.6,0.3-0.7,0.3L15.8,9h1.9l0.4-1.7L23.2,3.5z M23.4,2.6L6.2,15.2L9.4,2.6h4.2L12,9h1.8c0.2,0,0.4-0.1,0.6-0.2
		c0.2-0.1,0.5-0.3,0.7-0.4c0.2-0.2,0.5-0.4,0.7-0.6c0.3-0.2,0.5-0.4,0.7-0.6C16.8,7,17,6.8,17.2,6.6c0.2-0.2,0.3-0.3,0.4-0.5
		c0.2-0.3,0.4-0.6,0.6-0.9s0.3-0.6,0.5-0.9C18.8,4,18.9,3.7,19,3.5c0.1-0.3,0.2-0.5,0.2-0.8l0,0V2.6H23.4z"/>
	<path class="st1" d="M21.8,15.4l20.4-15c-0.4,0.4-0.8,0.9-1.2,1.4c-0.2,0.3-0.4,0.5-0.6,0.7C40.3,2.7,40.1,3,40,3.2
		c-0.1,0.3-0.3,0.5-0.4,0.8c-0.1,0.3-0.3,0.6-0.4,0.9L39,5.8h-3h-0.1l0,0c-0.1,0-0.2,0-0.4,0s-0.4,0.1-0.6,0.3
		c-0.2,0.1-0.4,0.3-0.7,0.5C34,7,33.6,7.2,33.3,7.5C33,7.7,32.7,8,32.4,8.2s-0.5,0.4-0.5,0.4l-0.1,0.1l-0.1,0.1l-0.1,0.1
		c0,0,0,0.1,0.1,0.1h5.5l-0.8,3.1h-6.3l-0.9,3.6h5.9L28,20.8c0.1-0.1,0.2-0.1,0.3-0.3c0.1-0.1,0.3-0.2,0.4-0.4
		c0.1-0.1,0.3-0.3,0.4-0.4c0.1-0.2,0.3-0.3,0.3-0.4c0.1-0.1,0.1-0.2,0.1-0.3c0-0.1,0-0.1-0.2-0.2H24c0.2-0.8,0.4-1.5,0.5-2.1
		c0.1-0.4,0.2-0.7,0.2-0.9c0.1-0.2,0.1-0.4,0.1-0.6c0-0.2,0.1-0.3,0.1-0.5c0-0.1,0-0.2,0.1-0.2c0-0.1,0-0.2,0-0.2
		c-0.1,0-0.1-0.1-0.2-0.1s-0.2,0-0.4,0.1c-0.1,0-0.3,0.1-0.5,0.1c-0.2,0.1-0.3,0.1-0.5,0.2c-0.2,0.1-0.4,0.2-0.5,0.2
		C22.7,15,22.3,15.2,21.8,15.4z M31.1,7.8L26,11.6l2.2-8.9h9.9l-4.3,3.2h-2.2L31.1,7.8z M27.5,22l10-7.3c-0.1,0.1-0.2,0.3-0.4,0.5
		c-0.1,0.2-0.2,0.4-0.3,0.6c-0.1,0.2-0.2,0.4-0.3,0.6c-0.1,0.2-0.1,0.4-0.2,0.5l-0.5,2h-2.7c-0.1,0-0.3,0.1-0.6,0.2
		s-0.5,0.2-0.8,0.4c-0.3,0.2-0.6,0.3-0.9,0.5s-0.6,0.4-1,0.6C29.1,20.9,28.3,21.4,27.5,22z"/>
	<path class="st1" d="M42.4,20.9c0,0,0.1-0.1,0.2-0.2c0.1-0.1,0.2-0.2,0.3-0.4c0.1-0.2,0.3-0.3,0.4-0.5c0.1-0.2,0.2-0.3,0.3-0.5
		s0.1-0.3,0.1-0.4s0-0.2-0.1-0.2h-4.9l2.9-11.8L49.8,1c-0.1,0.1-0.2,0.2-0.4,0.5S48.9,2,48.6,2.4c-0.3,0.3-0.6,0.7-0.9,1
		C47.4,3.7,47.2,4,47,4.3s-0.3,0.5-0.5,0.8c-0.1,0.3-0.2,0.5-0.3,0.7C46.1,6.1,46,6.3,46,6.5l0,0l-2.2,9.1h5.9L42.4,20.9z M46.6,2.5
		L39,8.1c0.1-0.1,0.2-0.2,0.4-0.5s0.5-0.6,0.8-0.9s0.6-0.7,0.9-1c0.3-0.3,0.5-0.6,0.7-0.9c0.3-0.4,0.5-0.7,0.6-1.1s0.2-0.7,0.3-0.9
		l0.1-0.3C42.8,2.5,46.6,2.5,46.6,2.5z M53.4,13.8c-0.3,0.4-0.7,0.8-1,1.1c-0.2,0.2-0.3,0.4-0.5,0.5c-0.1,0.1-0.3,0.3-0.4,0.4
		c-0.1,0.2-0.2,0.3-0.4,0.4c-0.1,0.1-0.2,0.3-0.3,0.4c-0.2,0.2-0.3,0.5-0.4,0.7c-0.1,0.2-0.2,0.5-0.3,0.6c-0.1,0.2-0.1,0.4-0.2,0.7
		l0,0h-3.3L53.4,13.8z"/>
	<path class="st1" d="M56.9,20.9c0,0,0.1-0.1,0.2-0.2c0.1-0.1,0.2-0.2,0.3-0.4c0.1-0.2,0.3-0.3,0.4-0.5c0.1-0.2,0.2-0.3,0.3-0.5
		s0.1-0.3,0.1-0.4s0-0.2-0.1-0.2h-4.9l2.9-11.8L64.3,1c-0.1,0.1-0.2,0.2-0.4,0.5C63.6,1.7,63.3,2,63,2.3s-0.6,0.7-0.9,1
		c-0.3,0.3-0.5,0.6-0.7,0.9C61.3,4.5,61.2,4.8,61,5c-0.1,0.3-0.2,0.5-0.3,0.7c-0.1,0.3-0.2,0.5-0.2,0.7l0,0l-2.2,9.1h5.9L56.9,20.9z
		 M61.1,2.5l-7.6,5.6c0.1-0.1,0.2-0.2,0.4-0.5s0.5-0.6,0.8-0.9s0.6-0.7,0.9-1c0.3-0.3,0.5-0.6,0.7-0.9c0.3-0.4,0.5-0.7,0.6-1.1
		s0.2-0.7,0.3-0.9l0.1-0.3C57.3,2.5,61.1,2.5,61.1,2.5z M67.8,13.8c-0.3,0.4-0.7,0.8-1,1.1c-0.2,0.2-0.3,0.4-0.5,0.5
		c-0.1,0.1-0.3,0.3-0.4,0.4c-0.1,0.2-0.2,0.3-0.4,0.4c-0.1,0.1-0.2,0.3-0.3,0.4c-0.2,0.2-0.3,0.5-0.4,0.7s-0.2,0.5-0.3,0.6
		c-0.1,0.2-0.1,0.4-0.2,0.7l0,0H61L67.8,13.8z"/>
	<path class="st1" d="M65.1,18.9l24-17.6c-0.8,0.7-1.6,1.4-2.3,2.1c-0.4,0.4-0.7,0.7-0.9,1s-0.4,0.5-0.6,0.8S85,5.7,84.9,6
		s-0.1,0.5-0.1,0.7c0.2,1.1,0.1,2.3-0.2,3.6L84.4,11c-0.3,1.1-0.7,2.2-1.3,3.1c-0.6,1-1.2,1.8-2,2.5c-0.8,0.7-1.7,1.3-2.7,1.7
		c-1,0.4-2.1,0.6-3.3,0.6c-0.8,0-1.6-0.1-2.3-0.4c-0.8-0.2-1.4-0.6-2-1.2c-0.2-0.2-0.5-0.3-0.9-0.3c-0.2,0-0.4,0-0.7,0.1
		c-0.3,0.1-0.5,0.1-0.8,0.2s-0.5,0.2-0.8,0.3c-0.3,0.1-0.5,0.2-0.8,0.3C66.3,18.3,65.7,18.6,65.1,18.9z M73.7,11.8L69.4,15
		c-0.2-1.1-0.2-2.3,0.1-3.7l0.2-0.9C70,9.2,70.5,8.2,71,7.2c0.6-1,1.2-1.8,2-2.5s1.7-1.3,2.7-1.7s2.1-0.6,3.3-0.6
		c0.5,0,0.9,0,1.4,0.1c0.4,0.1,0.9,0.2,1.3,0.4s0.8,0.4,1.1,0.6c0.4,0.3,0.7,0.6,1,0.9l-5.6,4.1c0.1-0.1,0.3-0.3,0.5-0.5
		s0.4-0.4,0.6-0.7c0.2-0.2,0.3-0.5,0.4-0.7s0.1-0.4,0-0.6c-0.2-0.2-0.4-0.3-0.6-0.3c-0.2-0.1-0.5-0.1-0.8-0.1
		c-0.6,0-1.1,0.1-1.6,0.4s-0.8,0.6-1.2,1c-0.3,0.4-0.6,0.9-0.8,1.4c-0.2,0.5-0.4,1-0.6,1.5L73.9,11c0,0.1-0.1,0.3-0.1,0.4
		C73.8,11.6,73.7,11.7,73.7,11.8z M80.3,10.3c0.1-0.3,0.1-0.6,0.2-0.9c0-0.3,0.1-0.5,0.1-0.8c0-0.1-0.1-0.2-0.3-0.2
		c-0.1,0-0.2,0-0.3,0.1s-0.2,0.1-0.4,0.2c-0.1,0.1-0.3,0.2-0.6,0.4c-0.3,0.2-0.6,0.5-1,0.7c-0.4,0.3-0.7,0.6-1.2,0.9
		s-0.8,0.6-1.1,0.9c-0.3,0.3-0.7,0.5-0.9,0.7c-0.3,0.2-0.4,0.3-0.5,0.4c-0.2,0.2-0.4,0.3-0.5,0.5c-0.2,0.2-0.2,0.4-0.2,0.6
		c0,0.6,0.2,1.1,0.6,1.5c0.4,0.3,0.9,0.5,1.6,0.5c0.6,0,1.2-0.2,1.7-0.5s0.9-0.7,1.2-1.1c0.3-0.5,0.6-1,0.9-1.5
		c0.2-0.6,0.4-1.1,0.5-1.6L80.3,10.3z"/>
	<path class="st1" d="M89.4,20.9c0,0,0.1-0.1,0.2-0.2s0.2-0.2,0.3-0.4c0.1-0.2,0.3-0.3,0.4-0.5s0.2-0.3,0.3-0.5
		c0.1-0.2,0.1-0.3,0.1-0.4s0-0.2-0.1-0.2h-4.9l2.9-11.8L96.8,1c-0.1,0.1-0.2,0.2-0.4,0.5c-0.2,0.3-0.5,0.5-0.8,0.9
		c-0.3,0.3-0.6,0.7-0.9,1C94.4,3.7,94.2,4,94,4.2c-0.2,0.3-0.3,0.5-0.5,0.8c-0.1,0.3-0.2,0.5-0.3,0.7c0,0.3-0.1,0.6-0.2,0.8l0,0
		l-2.2,9.1h5.9L89.4,20.9z M93.6,2.5L86,8.1c0.1-0.1,0.2-0.2,0.4-0.5c0.2-0.3,0.5-0.6,0.8-0.9s0.6-0.7,0.9-1s0.5-0.6,0.7-0.9
		c0.3-0.4,0.5-0.7,0.6-1.1s0.2-0.7,0.3-0.9l0.1-0.3C89.8,2.5,93.6,2.5,93.6,2.5z M100.3,13.8c-0.3,0.4-0.7,0.8-1,1.1
		c-0.2,0.2-0.3,0.4-0.5,0.5c-0.1,0.1-0.3,0.3-0.4,0.4c-0.1,0.2-0.2,0.3-0.4,0.4c-0.1,0.1-0.2,0.3-0.3,0.4c-0.2,0.2-0.3,0.5-0.4,0.7
		s-0.2,0.5-0.3,0.6c-0.1,0.2-0.1,0.4-0.2,0.7l0,0h-3.3L100.3,13.8z"/>
	<path class="st1" d="M105.9,10.2l-7.7,5.6c0.3-0.2,0.6-0.6,0.9-0.9c0.3-0.4,0.6-0.8,0.9-1.2s0.6-0.9,0.8-1.4
		c0.3-0.5,0.5-0.9,0.6-1.4l0.1-0.6c0.3-1.1,0.7-2.1,1.2-3.1s1.2-1.8,2-2.5s1.6-1.3,2.6-1.7s2.1-0.6,3.2-0.6c0.4,0,0.7,0,1.1,0.1
		c0.4,0,0.7,0.1,1.1,0.2c0.4,0.1,0.7,0.2,1,0.4s0.7,0.4,0.9,0.6L108.9,8c0.1-0.1,0.2-0.2,0.3-0.3c0.1-0.1,0.3-0.3,0.5-0.4
		c0.2-0.2,0.3-0.3,0.5-0.5c0.1-0.2,0.3-0.3,0.3-0.5c0.1-0.2,0.1-0.3,0.1-0.4s-0.1-0.2-0.2-0.2s-0.1,0-0.2,0s-0.2,0-0.2,0
		c-0.6,0-1.1,0.1-1.6,0.4c-0.4,0.3-0.8,0.6-1.1,1s-0.5,0.9-0.7,1.4s-0.4,1-0.5,1.6L105.9,10.2z M101.1,14.5l4.6-3.4
		c-0.2,0.8-0.3,1.6-0.4,2.2c0,0.6,0,1.1,0.1,1.5c0.1,0.2,0.2,0.4,0.3,0.5c0.1,0.1,0.3,0.2,0.5,0.3s0.4,0.1,0.6,0.2
		c0.2,0,0.4,0,0.6,0c0.1,0,0.1,0,0.2,0s0.2,0,0.2,0c0.1,0,0.1,0,0.2,0s0.1,0,0.1,0c0.2,0,0.4-0.1,0.7-0.1c0.3-0.1,0.6-0.2,0.9-0.4
		s0.6-0.5,0.9-0.8s0.6-0.9,0.8-1.5h0.6c0.2,0,0.3,0,0.5,0c0.1,0,0.3-0.1,0.5-0.1s0.3-0.1,0.5-0.2c0.2-0.1,0.3-0.2,0.5-0.3
		s0.3-0.2,0.4-0.3s0.3-0.2,0.4-0.3l-9.6,7c-1.2-0.2-2.1-0.7-2.8-1.5C101.6,16.6,101.2,15.7,101.1,14.5z M103.7,20.6l13.1-9.6
		c-0.1,0.1-0.1,0.2-0.3,0.3c-0.1,0.2-0.3,0.3-0.5,0.5s-0.3,0.4-0.5,0.6c-0.2,0.2-0.3,0.4-0.4,0.5s-0.1,0.2-0.2,0.3
		c0,0.1-0.1,0.2-0.1,0.3c-0.3,0.8-0.6,1.6-1.1,2.2c-0.5,0.6-1.1,1.2-1.7,1.7s-1.4,0.8-2.1,1.1c-0.8,0.3-1.6,0.4-2.4,0.5
		c-0.4,0.1-0.9,0.2-1.3,0.4c-0.5,0.2-0.9,0.4-1.2,0.6C104.5,20.2,104.1,20.4,103.7,20.6z M120.4,0.3c-0.8,0.7-1.5,1.4-2.2,2
		c-0.4,0.4-0.7,0.7-0.9,1c-0.2,0.3-0.4,0.5-0.6,0.8s-0.3,0.5-0.5,0.8c-0.1,0.3-0.2,0.5-0.2,0.7c0,0.1,0,0.1,0,0.2s0,0.1,0,0.2
		c0.2,0.7,0.2,1.5,0.1,2.4v0.1H112c0.1-0.4,0.1-0.7,0.1-1.1c0-0.3,0-0.6-0.1-0.8L120.4,0.3z"/>
	<path class="st1" d="M123.3,8.6l-8.8,6.5c0.1-0.1,0.4-0.3,0.6-0.6c0.3-0.2,0.5-0.5,0.8-0.8s0.6-0.7,0.9-1c0.3-0.4,0.6-0.8,0.9-1.2
		s0.5-0.8,0.8-1.2c0.2-0.4,0.4-0.8,0.5-1.2l1.6-6.4h6c0.3,0,0.6,0,0.9,0s0.7,0.1,1,0.1c0.3,0,0.7,0.1,1,0.2c0.3,0.1,0.6,0.2,0.9,0.3
		l-5.5,4c0.1-0.1,0.2-0.2,0.4-0.4s0.3-0.3,0.5-0.5c0.1-0.2,0.2-0.3,0.3-0.5c0-0.1,0-0.2-0.2-0.2h-1.8L123.3,8.6z M132.3,10.6
		l-11.2,8.2h-4.6l1.4-5.5l5.4-3.9h1.7c0.3,0,0.6,0,0.9-0.1c0.3,0,0.6-0.1,0.8-0.3c0.2-0.1,0.5-0.3,0.6-0.5c0.2-0.2,0.3-0.5,0.4-0.9
		c0.2-0.6,0.1-1.1-0.2-1.3c0,0-0.1,0-0.1-0.1l6.3-4.6c-0.4,0.4-0.8,0.8-1.1,1.2c-0.2,0.2-0.3,0.4-0.4,0.6c-0.1,0.2-0.2,0.3-0.3,0.5
		c-0.1,0.2-0.1,0.3-0.2,0.4c0,0.1,0,0.2,0,0.3l0,0l0,0c0.4,0.7,0.4,1.5,0.2,2.5c-0.2,0.8-0.5,1.5-1,2.1c-0.5,0.6-1.1,1-1.9,1.3
		c0.4,0.1,0.7,0.3,1,0.6c0.1,0,0.1,0.1,0.2,0.1c0.1,0,0.2,0,0.3,0s0.3,0,0.4-0.1c0.2,0,0.3-0.1,0.5-0.2c0.2-0.1,0.3-0.2,0.4-0.3
		C132.2,10.7,132.3,10.7,132.3,10.6z M122.2,18.9l10.7-7.9c0,0.1-0.1,0.2-0.3,0.3s-0.3,0.3-0.5,0.5s-0.3,0.4-0.5,0.6
		c-0.2,0.2-0.3,0.4-0.4,0.5c-0.1,0.1-0.1,0.3-0.2,0.4c-0.1,0.2-0.1,0.3-0.2,0.4c-0.1,0.2-0.1,0.3-0.2,0.5l0,0
		c-0.2,0.8-0.5,1.5-0.9,2c-0.4,0.6-0.9,1-1.5,1.4c-0.6,0.4-1.2,0.6-1.9,0.8c-0.7,0.2-1.4,0.3-2.2,0.4c-0.2,0-0.4,0.1-0.7,0.1
		c-0.2,0.1-0.5,0.1-0.7,0.2c-0.3,0.1-0.5,0.2-0.7,0.3c-0.2,0.1-0.5,0.2-0.7,0.3c-0.5,0.2-1,0.5-1.6,0.8L122.2,18.9L122.2,18.9z
		 M125.1,12.1h-2.7l-0.9,3.6h2.5c0.3,0,0.6,0,0.9-0.1s0.5-0.2,0.8-0.3c0.2-0.1,0.4-0.3,0.6-0.5s0.3-0.5,0.4-0.8
		c0.2-0.6,0.1-1.1-0.1-1.4C126.2,12.3,125.8,12.1,125.1,12.1z"/>
</g>
</svg>
