<?xml version="1.0" encoding="utf-8"?>
<!-- Generator: Adobe Illustrator 24.0.0, SVG Export Plug-In . SVG Version: 6.00 Build 0)  -->
<svg version="1.1" id="图层_1" xmlns="http://www.w3.org/2000/svg" xmlns:xlink="http://www.w3.org/1999/xlink" x="0px" y="0px"
	 viewBox="0 0 24 24" style="enable-background:new 0 0 24 24;" xml:space="preserve">
<style type="text/css">
	.st0{fill:#FFFFFF;}
</style>
<path class="st0" d="M19.9,14.5c-0.2-0.6-0.4-1.3-0.7-1.9l-0.9-2.2c0,0,0-0.5,0-0.7C18.3,5.9,16.5,2,12,2S5.7,5.9,5.7,9.7
	c0,0.2,0,0.7,0,0.7l-0.9,2.2c-0.2,0.6-0.5,1.3-0.7,1.9c-0.9,2.7-0.6,3.9-0.4,3.9c0.5,0.1,1.8-2.1,1.8-2.1c0,1.2,0.6,2.8,2,4
	C7,20.5,6.4,20.7,6,21c-0.4,0.3-0.3,0.5-0.3,0.6c0.3,0.5,5,0.3,6.3,0.2c1.3,0.1,6,0.3,6.3-0.2c0.1-0.1,0.1-0.4-0.3-0.6
	c-0.4-0.3-1-0.5-1.6-0.7c1.4-1.2,2-2.8,2-4c0,0,1.3,2.1,1.8,2.1C20.5,18.4,20.8,17.3,19.9,14.5"/>
</svg>
