<?xml version="1.0" encoding="utf-8"?>
<!-- Generator: Adobe Illustrator 24.0.0, SVG Export Plug-In . SVG Version: 6.00 Build 0)  -->
<svg version="1.1" id="图层_1" xmlns="http://www.w3.org/2000/svg" xmlns:xlink="http://www.w3.org/1999/xlink" x="0px" y="0px"
	 viewBox="0 0 24 24" style="enable-background:new 0 0 24 24;" xml:space="preserve">
<style type="text/css">
	.st0{fill:#FFFFFF;}
</style>
<path class="st0" d="M18.6,13.7c0.5,0,0.9-0.4,0.9-0.9c0-0.5-0.4-0.9-0.9-0.9s-0.9,0.4-0.9,0.9C17.7,13.3,18.1,13.7,18.6,13.7z
	 M14.1,13.7c0.5,0,0.9-0.4,0.9-0.9c0-0.5-0.4-0.9-0.9-0.9c-0.5,0-0.9,0.4-0.9,0.9C13.3,13.3,13.6,13.7,14.1,13.7z M20.7,18.8
	c-0.1,0.1-0.2,0.2-0.2,0.4c0,0,0,0.1,0,0.1c0.1,0.4,0.3,1.1,0.3,1.1c0,0.1,0,0.1,0,0.2c0,0.1-0.1,0.2-0.2,0.2c0,0,0,0,0,0
	c0,0-0.1,0-0.1,0l-1.4-0.8c-0.1-0.1-0.2-0.1-0.3-0.1c-0.1,0-0.1,0-0.2,0c-0.7,0.2-1.4,0.3-2.2,0.3c-3.7,0-6.6-2.5-6.6-5.5
	c0-3,2.9-5.5,6.6-5.5c3.7,0,6.6,2.5,6.6,5.5C23,16.2,22.1,17.7,20.7,18.8L20.7,18.8z M16.7,8.1c-0.1,0-0.2,0-0.3,0
	c-4.2,0-7.6,2.9-7.6,6.5c0,0.6,0.1,1.1,0.2,1.6H8.9c-0.9,0-1.7-0.1-2.6-0.4c-0.1,0-0.1,0-0.2,0c-0.1,0-0.3,0-0.4,0.1l-1.7,1
	c0,0-0.1,0-0.1,0c-0.1,0-0.3-0.1-0.3-0.3c0-0.1,0-0.1,0-0.2c0,0,0.2-0.8,0.4-1.3c0-0.1,0-0.1,0-0.2c0-0.2-0.1-0.3-0.2-0.4
	c-1.7-1.2-2.8-3-2.8-5C1,5.9,4.6,3,8.9,3C12.7,3,15.9,5.2,16.7,8.1L16.7,8.1z M11.5,8.5c0.6,0,1-0.5,1-1c0-0.6-0.5-1-1-1s-1,0.5-1,1
	S10.9,8.5,11.5,8.5z M6.3,8.5c0.6,0,1-0.5,1-1c0-0.6-0.5-1-1-1c-0.6,0-1,0.5-1,1S5.7,8.5,6.3,8.5z"/>
</svg>
